<svg xmlns="http://www.w3.org/2000/svg" width="96" height="96" viewBox="0 0 96 96" version="1.1"><path d="" stroke="none" fill="#080404" fill-rule="evenodd"/><path d="M 49.929 5.367 C 43.365 7.137, 36.813 11.270, 32.123 16.598 C 29.882 19.144, 26.125 22.168, 23.774 23.319 C 13.315 28.437, 5.463 40.446, 4.271 53.145 C 3.665 59.605, 6.593 70.942, 9.980 75.248 C 11.091 76.660, 12 78.317, 12 78.930 C 12 79.543, 10.149 82.053, 7.887 84.507 C 1.199 91.762, 1.735 92, 24.787 92 C 39.975 92, 45.913 91.627, 50.068 90.412 C 56.455 88.544, 64.002 83.974, 67.433 79.897 L 69.871 77 81.813 77 C 97.347 77, 98.466 76.072, 91.481 68.981 C 86.994 64.425, 86.751 63.929, 88.201 62.280 C 89.062 61.301, 90.667 58.700, 91.768 56.500 C 99.759 40.524, 94.564 20.781, 79.696 10.617 C 71.050 4.707, 59.761 2.716, 49.929 5.367 M 34.920 25.026 C 25.413 26.603, 16.037 34.099, 11.932 43.405 C 7.571 53.295, 9.517 66.884, 16.480 75.159 C 19.720 79.009, 19.660 79.713, 15.750 83.810 L 12.500 87.214 30 86.777 C 50.444 86.266, 54.595 85.034, 62.295 77.195 C 68.674 70.701, 71.222 64.521, 71.222 55.548 C 71.222 46.096, 68.470 39.680, 61.645 33.225 C 54.205 26.190, 44.977 23.358, 34.920 25.026 M 31.015 36.705 C 24.084 40.349, 19.851 46.672, 19.240 54.294 C 18.349 65.399, 27.658 75.827, 39.294 76.760 C 50.399 77.651, 60.827 68.342, 61.760 56.706 C 62.651 45.601, 53.342 35.173, 41.706 34.240 C 37.404 33.895, 35.547 34.323, 31.015 36.705 M 28 48 C 28 49.810, 28.667 50, 35 50 C 41.333 50, 42 49.810, 42 48 C 42 46.190, 41.333 46, 35 46 C 28.667 46, 28 46.190, 28 48 M 50.500 47 C 49.771 48.180, 50.717 50, 52.059 50 C 52.577 50, 53 49.100, 53 48 C 53 45.891, 51.545 45.309, 50.500 47 M 27.514 54.978 C 27.161 55.548, 27.490 56.251, 28.245 56.540 C 30.746 57.500, 53.513 56.553, 53.253 55.500 C 52.912 54.119, 28.353 53.621, 27.514 54.978 M 28 63 C 28 64.289, 28.506 64.998, 29.250 64.750 C 29.938 64.521, 30.500 63.733, 30.500 63 C 30.500 62.267, 29.938 61.479, 29.250 61.250 C 28.506 61.002, 28 61.711, 28 63 M 39 63 C 39 64.810, 39.667 65, 46 65 C 52.333 65, 53 64.810, 53 63 C 53 61.190, 52.333 61, 46 61 C 39.667 61, 39 61.190, 39 63" stroke="none" fill="#040404" fill-rule="evenodd"/></svg>