<svg xmlns="http://www.w3.org/2000/svg" width="96" height="96" viewBox="0 0 96 96" version="1.1"><path d="" stroke="none" fill="#080404" fill-rule="evenodd"/><path d="M 57 6.333 C 57 16.059, 55.140 24, 52.862 24 C 51.322 24, 51 23.222, 51 19.500 L 51 15 47 15 L 43 15 43 19.500 C 43 23.333, 42.704 24, 41 24 C 39.444 24, 39 23.333, 39 21 C 39 18.167, 38.778 18, 35 18 L 31 18 31 22.500 C 31 24.975, 30.582 27, 30.071 27 C 28.318 27, 26 30.144, 26 32.522 C 26 33.830, 25.364 35.260, 24.587 35.700 C 23.653 36.229, 22.931 39.292, 22.459 44.732 C 21.843 51.836, 21.968 53.050, 23.372 53.589 C 24.366 53.971, 25 55.361, 25 57.157 C 25 58.775, 25.680 61.414, 26.511 63.021 C 27.342 64.629, 28.729 72.368, 29.594 80.221 C 30.458 88.074, 31.391 94.724, 31.666 94.999 C 32.320 95.653, 63.680 95.653, 64.334 94.999 C 64.609 94.724, 65.542 88.074, 66.406 80.221 C 67.271 72.368, 68.658 64.629, 69.489 63.021 C 71.129 59.849, 71.375 50.175, 70.154 36.775 C 69.632 31.043, 68.985 28.709, 67.644 27.729 C 65.357 26.056, 63.082 15.701, 63.035 6.750 L 63 0 60 0 L 57 0 57 6.333 M 42.464 31.055 C 32.215 32.428, 32.032 32.748, 32.011 49.275 C 32 57.907, 32.045 58.068, 34.750 59.196 C 38.315 60.683, 57.685 60.683, 61.250 59.196 C 63.955 58.068, 64 57.907, 63.989 49.275 C 63.983 44.449, 63.699 38.814, 63.359 36.753 C 62.815 33.466, 62.296 32.896, 59.120 32.102 C 53.393 30.671, 47.905 30.326, 42.464 31.055 M 37 38.500 L 37 41 48 41 L 59 41 59 38.500 L 59 36 48 36 L 37 36 37 38.500 M 37 45.500 L 37 48 48 48 L 59 48 59 45.500 L 59 43 48 43 L 37 43 37 45.500 M 37 53.500 L 37 56 48 56 L 59 56 59 53.500 L 59 51 48 51 L 37 51 37 53.500" stroke="none" fill="#040404" fill-rule="evenodd"/></svg>