<svg xmlns="http://www.w3.org/2000/svg" width="96" height="96" viewBox="0 0 96 96" version="1.1"><path d="" stroke="none" fill="#080404" fill-rule="evenodd"/><path d="M 42.500 8.388 C 25.987 12.408, 13.244 25.511, 9.566 42.250 C 9.017 44.751, 8.556 45, 4.481 45 L 0 45 0 51 L 0 57 4.481 57 C 8.560 57, 9.015 57.247, 9.550 59.750 C 14.378 82.314, 36.903 97.996, 59.033 94.201 C 76.941 91.130, 90.215 79.012, 95.145 61.234 C 97.477 52.823, 97.460 47.022, 95.083 39.921 C 92.052 30.867, 89.093 25.932, 83.125 19.978 C 72.338 9.216, 57.032 4.849, 42.500 8.388 M 41.929 12.303 C 28.346 16.157, 16.335 28.612, 13.534 41.750 L 12.841 45 26.576 45 C 39.818 45, 40.251 44.934, 38.655 43.171 C 37.745 42.165, 37 40.904, 37 40.367 C 37 38.857, 43.415 33, 45.070 33 C 47.003 33, 63 49.097, 63 51.043 C 63 53.014, 46.909 69, 44.925 69 C 43.321 69, 37 63.043, 37 61.531 C 37 61.051, 37.745 59.835, 38.655 58.829 C 40.251 57.066, 39.818 57, 26.576 57 L 12.841 57 13.534 60.250 C 15.853 71.129, 24.538 81.678, 35.699 87.173 C 41.997 90.273, 43.144 90.500, 52.500 90.500 C 61.856 90.500, 63.003 90.273, 69.301 87.173 C 99.945 72.087, 100.114 29.997, 69.592 14.970 C 64.273 12.352, 61.647 11.717, 54.812 11.396 C 49.812 11.162, 44.679 11.523, 41.929 12.303 M 44.746 17.086 C 34.976 19.388, 24.953 27.484, 20.946 36.310 C 18.641 41.389, 18.529 43, 20.483 43 C 21.299 43, 23.098 40.767, 24.481 38.037 C 30.118 26.914, 38.677 21.135, 50.745 20.307 C 59.677 19.694, 60.568 19.389, 58.990 17.488 C 57.611 15.827, 50.893 15.637, 44.746 17.086 M 62.406 19.152 C 61.558 20.525, 64.636 23, 67.191 23 C 69.867 23, 69.386 20.497, 66.453 19.161 C 63.321 17.733, 63.283 17.733, 62.406 19.152 M 71.477 24.038 C 71.124 24.608, 72.499 26.917, 74.533 29.168 C 85.487 41.293, 86.258 57.796, 76.470 70.628 C 71.714 76.863, 74.912 78.354, 79.947 72.250 C 84.485 66.749, 87 59.170, 87 51 C 87 41.970, 84.209 34.561, 78.354 28.048 C 73.701 22.874, 72.595 22.229, 71.477 24.038 M 43.135 39.337 C 42.286 40.360, 42.611 41.225, 44.512 43.012 C 49.592 47.784, 48.748 48, 25 48 L 3 48 3 51 L 3 54 25 54 C 48.735 54, 49.180 54.115, 44.461 59.041 C 42.167 61.435, 42.077 61.819, 43.526 63.021 C 44.920 64.179, 45.998 63.483, 51.796 57.686 L 58.462 51.020 52.010 44.510 C 48.461 40.929, 45.262 38, 44.901 38 C 44.540 38, 43.745 38.602, 43.135 39.337 M 0.320 51 C 0.320 54.575, 0.502 56.038, 0.723 54.250 C 0.945 52.462, 0.945 49.538, 0.723 47.750 C 0.502 45.962, 0.320 47.425, 0.320 51 M 19.383 59.444 C 18.152 62.653, 26.379 76, 29.589 76 C 31.723 76, 31.332 74.694, 27.490 68.985 C 25.560 66.117, 23.719 62.729, 23.400 61.457 C 22.713 58.719, 20.154 57.436, 19.383 59.444 M 36.200 76.200 C 34.762 77.638, 34.623 80.649, 35.956 81.473 C 37.196 82.239, 40.372 77.411, 39.527 76.044 C 38.682 74.677, 37.676 74.724, 36.200 76.200 M 65.473 76.044 C 64.628 77.411, 67.804 82.239, 69.044 81.473 C 70.377 80.649, 70.238 77.638, 68.800 76.200 C 67.324 74.724, 66.318 74.677, 65.473 76.044 M 42.969 80.582 C 42.249 82.477, 42.247 83.647, 42.963 84.363 C 44.324 85.724, 45.857 84.183, 46.221 81.089 C 46.620 77.699, 44.208 77.323, 42.969 80.582 M 58.552 78.916 C 57.799 80.135, 59.689 85, 60.916 85 C 62.603 85, 63.046 83.250, 62.032 80.584 C 61.033 77.957, 59.576 77.259, 58.552 78.916 M 51 82.500 C 51 84.944, 51.452 86, 52.500 86 C 53.548 86, 54 84.944, 54 82.500 C 54 80.056, 53.548 79, 52.500 79 C 51.452 79, 51 80.056, 51 82.500" stroke="none" fill="#040404" fill-rule="evenodd"/></svg>