<svg xmlns="http://www.w3.org/2000/svg" width="240" height="240" viewBox="0 0 240 240" version="1.1"><path d="M 17.923 47.923 C 15.118 50.728, 15 51.216, 15 60 C 15 68.784, 15.118 69.272, 17.923 72.077 L 20.846 75 55.686 75 L 90.525 75 105.500 60 L 120.475 45 70.661 45 L 20.846 45 17.923 47.923 M 17.923 107.923 C 15.118 110.728, 15 111.216, 15 120 C 15 128.784, 15.118 129.272, 17.923 132.077 L 20.846 135 55.686 135 L 90.525 135 105.500 120 L 120.475 105 70.661 105 L 20.846 105 17.923 107.923 M 17.923 167.923 C 15.118 170.728, 15 171.216, 15 180 C 15 188.784, 15.118 189.272, 17.923 192.077 L 20.846 195 55.686 195 L 90.525 195 105.500 180 L 120.475 165 70.661 165 L 20.846 165 17.923 167.923" stroke="none" fill="#3ac9f3" fill-rule="evenodd"/><path d="M 105.500 60 L 90.525 75 154.839 75 L 219.154 75 222.077 72.077 C 224.882 69.272, 225 68.784, 225 60 C 225 51.216, 224.882 50.728, 222.077 47.923 L 219.154 45 169.814 45 L 120.475 45 105.500 60 M 105.500 120 L 90.525 135 154.839 135 L 219.154 135 222.077 132.077 C 224.882 129.272, 225 128.784, 225 120 C 225 111.216, 224.882 110.728, 222.077 107.923 L 219.154 105 169.814 105 L 120.475 105 105.500 120 M 105.500 180 L 90.525 195 154.839 195 L 219.154 195 222.077 192.077 C 224.882 189.272, 225 188.784, 225 180 C 225 171.216, 224.882 170.728, 222.077 167.923 L 219.154 165 169.814 165 L 120.475 165 105.500 180" stroke="none" fill="#1fa0e0" fill-rule="evenodd"/></svg>