<svg xmlns="http://www.w3.org/2000/svg" width="512" height="512" viewBox="0 0 512 512" version="1.1"><path d="M 250.174 2.314 L 248 4.629 247.995 64.564 L 247.990 124.500 233.815 142.250 L 219.640 160 196.235 160 L 172.830 160 105.165 207.750 C 67.949 234.012, 36.225 256.634, 34.666 258.020 C 31.837 260.535, 31.829 260.581, 30.164 282.020 L 28.497 303.500 24.498 303.820 C 19.129 304.250, 16 307.262, 16 312 C 16 316.612, 19.309 320, 23.814 320 C 25.567 320, 27 320.267, 27 320.594 C 27 322.803, 16.893 448.363, 16.443 451.750 L 15.877 456 10.113 456 C 5.381 456, 3.959 456.414, 2.174 458.314 C 0.069 460.555, 0 461.377, 0 484.140 C 0 507.423, 0.022 507.672, 2.314 509.826 L 4.629 512 256.010 512 L 507.391 512 510.195 509.313 L 513 506.626 513 482.754 C 513 469.549, 512.613 459.121, 512.134 459.417 C 511.657 459.712, 510.462 459.063, 509.479 457.976 C 508.090 456.442, 506.397 456, 501.906 456 L 496.123 456 495.557 451.750 C 495.107 448.363, 485 322.803, 485 320.594 C 485 320.267, 486.497 320, 488.326 320 C 492.747 320, 496 316.550, 496 311.860 C 496 307.270, 492.802 304.245, 487.502 303.820 L 483.503 303.500 481.843 282.110 C 480.192 260.842, 480.166 260.705, 477.341 258.004 C 475.779 256.509, 444.067 233.847, 406.872 207.643 L 339.243 160 315.802 160 L 292.360 160 278.185 142.250 L 264.010 124.500 264.005 110.250 L 264 96 294.232 96 L 324.464 96 314.232 106.267 C 305.096 115.434, 304 116.915, 304 120.093 C 304 122.520, 304.736 124.343, 306.314 125.826 C 308.618 127.989, 308.842 128, 352.140 128 L 395.651 128 397.826 125.686 C 399.989 123.382, 400 123.158, 400 79.860 L 400 36.349 397.686 34.174 C 395.456 32.080, 394.574 32, 373.686 32 L 352 32 352 18.174 C 352 -2.032, 357.829 -0, 299.860 0 L 252.349 0 250.174 2.314 M 264 48 L 264 80 300 80 L 336 80 336 48 L 336 16 300 16 L 264 16 264 48 M 248.163 150.255 L 240.827 159.500 248.413 159.792 C 252.586 159.953, 259.422 159.953, 263.604 159.792 L 271.209 159.500 264.019 150.500 C 260.064 145.550, 256.530 141.390, 256.164 141.255 C 255.799 141.121, 252.199 145.171, 248.163 150.255 M 224.028 213.250 C 241.105 233.738, 255.410 250.617, 255.817 250.760 C 256.492 250.996, 317.059 178.809, 317.833 176.845 C 318.017 176.380, 290 176, 255.573 176 L 192.980 176 224.028 213.250 M 120.886 216.616 C 91.524 237.304, 67.072 254.629, 66.550 255.116 C 65.999 255.629, 102.015 256, 152.311 256 L 239.022 256 206.923 217.500 C 189.268 196.325, 174.699 179, 174.547 179 C 174.396 179, 150.248 195.927, 120.886 216.616 M 305.113 217.458 L 272.978 256 317.878 256 C 368.180 256, 366.461 255.752, 367.649 263.177 C 368.140 266.240, 367.808 267.282, 365.664 269.427 C 363.095 271.996, 363.061 272, 345.545 272 L 328 272 328 288 L 328 304 397.644 304 L 467.287 304 466.679 297.250 C 466.345 293.538, 465.766 286.337, 465.392 281.250 L 464.713 272 442.811 272 L 420.909 272 418.455 269.545 C 415.476 266.567, 415.250 262.149, 417.908 258.861 C 419.696 256.649, 420.650 256.468, 433.030 256 L 446.244 255.500 392.438 217.500 C 362.845 196.600, 338.321 179.369, 337.940 179.208 C 337.559 179.047, 322.787 196.260, 305.113 217.458 M 388.315 256.969 C 383.571 258.963, 382.579 265.670, 386.455 269.545 C 389.752 272.842, 394.297 272.794, 397.664 269.427 C 399.797 267.294, 400.138 266.235, 399.652 263.246 C 399.331 261.262, 398.483 259.055, 397.770 258.342 C 396.007 256.579, 390.981 255.849, 388.315 256.969 M 46.608 281.250 C 46.234 286.337, 45.655 293.538, 45.321 297.250 L 44.713 304 114.356 304 L 184 304 184 288 L 184 272 115.643 272 L 47.287 272 46.608 281.250 M 200 288 L 200 304 256 304 L 312 304 312 288 L 312 272 256 272 L 200 272 200 288 M 38.177 386.750 C 35.280 423.462, 32.931 454.063, 32.955 454.750 C 32.991 455.739, 48.791 456, 108.500 456 L 184 456 184 388 L 184 320 172.032 320 L 160.063 320 159.782 361.965 C 159.522 400.698, 159.362 404.068, 157.714 405.715 C 156.054 407.374, 152.825 407.500, 111.876 407.500 L 67.823 407.500 65.912 405.139 C 64.098 402.900, 64 400.651, 64 361.389 L 64 320 53.721 320 L 43.443 320 38.177 386.750 M 80 332 L 80 344 112 344 L 144 344 144 332 L 144 320 112 320 L 80 320 80 332 M 200 408 L 200 496 256 496 L 312 496 312 408 L 312 320 256 320 L 200 320 200 408 M 328 388 L 328 456 403.500 456 C 463.209 456, 479.009 455.739, 479.045 454.750 C 479.069 454.063, 476.720 423.462, 473.823 386.750 L 468.557 320 458.310 320 L 448.063 320 447.782 361.965 C 447.522 400.698, 447.362 404.068, 445.714 405.715 C 444.054 407.374, 440.825 407.500, 399.876 407.500 L 355.823 407.500 353.912 405.139 C 352.098 402.900, 352 400.651, 352 361.389 L 352 320 340 320 L 328 320 328 388 M 368 332 L 368 344 400 344 L 432 344 432 332 L 432 320 400 320 L 368 320 368 332 M 80 376 L 80 392 112 392 L 144 392 144 376 L 144 360 112 360 L 80 360 80 376 M 368 376 L 368 392 400 392 L 432 392 432 376 L 432 360 400 360 L 368 360 368 376 M 282.455 370.455 L 280 372.909 280 404 L 280 435.091 282.455 437.545 C 284.002 439.093, 286.052 440, 288 440 C 289.948 440, 291.998 439.093, 293.545 437.545 L 296 435.091 296 404 L 296 372.909 293.545 370.455 C 291.998 368.907, 289.948 368, 288 368 C 286.052 368, 284.002 368.907, 282.455 370.455 M 0.432 484 C 0.432 497.475, 0.574 502.988, 0.747 496.250 C 0.920 489.512, 0.920 478.488, 0.747 471.750 C 0.574 465.012, 0.432 470.525, 0.432 484 M 16 484 L 16 496 100 496 L 184 496 184 484 L 184 472 100 472 L 16 472 16 484 M 328 484 L 328 496 412 496 L 496 496 496 484 L 496 472 412 472 L 328 472 328 484" stroke="none" fill="#282424" fill-rule="evenodd"/><path d="M 264 48 L 264 80 300 80 L 336 80 336 48 L 336 16 300 16 L 264 16 264 48 M 248.163 150.255 L 240.827 159.500 248.413 159.792 C 252.586 159.953, 259.422 159.953, 263.604 159.792 L 271.209 159.500 264.019 150.500 C 260.064 145.550, 256.530 141.390, 256.164 141.255 C 255.799 141.121, 252.199 145.171, 248.163 150.255 M 224.028 213.250 C 241.105 233.738, 255.410 250.617, 255.817 250.760 C 256.492 250.996, 317.059 178.809, 317.833 176.845 C 318.017 176.380, 290 176, 255.573 176 L 192.980 176 224.028 213.250 M 120.886 216.616 C 91.524 237.304, 67.072 254.629, 66.550 255.116 C 65.999 255.629, 102.015 256, 152.311 256 L 239.022 256 206.923 217.500 C 189.268 196.325, 174.699 179, 174.547 179 C 174.396 179, 150.248 195.927, 120.886 216.616 M 305.113 217.458 L 272.978 256 317.878 256 C 368.180 256, 366.461 255.752, 367.649 263.177 C 368.140 266.240, 367.808 267.282, 365.664 269.427 C 363.095 271.996, 363.061 272, 345.545 272 L 328 272 328 288 L 328 304 397.644 304 L 467.287 304 466.679 297.250 C 466.345 293.538, 465.766 286.337, 465.392 281.250 L 464.713 272 442.811 272 L 420.909 272 418.455 269.545 C 415.476 266.567, 415.250 262.149, 417.908 258.861 C 419.696 256.649, 420.650 256.468, 433.030 256 L 446.244 255.500 392.438 217.500 C 362.845 196.600, 338.321 179.369, 337.940 179.208 C 337.559 179.047, 322.787 196.260, 305.113 217.458 M 388.315 256.969 C 383.571 258.963, 382.579 265.670, 386.455 269.545 C 389.752 272.842, 394.297 272.794, 397.664 269.427 C 399.797 267.294, 400.138 266.235, 399.652 263.246 C 399.331 261.262, 398.483 259.055, 397.770 258.342 C 396.007 256.579, 390.981 255.849, 388.315 256.969 M 46.608 281.250 C 46.234 286.337, 45.655 293.538, 45.321 297.250 L 44.713 304 114.356 304 L 184 304 184 288 L 184 272 115.643 272 L 47.287 272 46.608 281.250 M 200 288 L 200 304 256 304 L 312 304 312 288 L 312 272 256 272 L 200 272 200 288 M 38.177 386.750 C 35.280 423.462, 32.931 454.063, 32.955 454.750 C 32.991 455.739, 48.791 456, 108.500 456 L 184 456 184 388 L 184 320 172.032 320 L 160.063 320 159.782 361.965 C 159.522 400.698, 159.362 404.068, 157.714 405.715 C 156.054 407.374, 152.825 407.500, 111.876 407.500 L 67.823 407.500 65.912 405.139 C 64.098 402.900, 64 400.651, 64 361.389 L 64 320 53.721 320 L 43.443 320 38.177 386.750 M 80 332 L 80 344 112 344 L 144 344 144 332 L 144 320 112 320 L 80 320 80 332 M 200 408 L 200 496 256 496 L 312 496 312 408 L 312 320 256 320 L 200 320 200 408 M 328 388 L 328 456 403.500 456 C 463.209 456, 479.009 455.739, 479.045 454.750 C 479.069 454.063, 476.720 423.462, 473.823 386.750 L 468.557 320 458.310 320 L 448.063 320 447.782 361.965 C 447.522 400.698, 447.362 404.068, 445.714 405.715 C 444.054 407.374, 440.825 407.500, 399.876 407.500 L 355.823 407.500 353.912 405.139 C 352.098 402.900, 352 400.651, 352 361.389 L 352 320 340 320 L 328 320 328 388 M 368 332 L 368 344 400 344 L 432 344 432 332 L 432 320 400 320 L 368 320 368 332 M 80 376 L 80 392 112 392 L 144 392 144 376 L 144 360 112 360 L 80 360 80 376 M 368 376 L 368 392 400 392 L 432 392 432 376 L 432 360 400 360 L 368 360 368 376 M 282.455 370.455 L 280 372.909 280 404 L 280 435.091 282.455 437.545 C 284.002 439.093, 286.052 440, 288 440 C 289.948 440, 291.998 439.093, 293.545 437.545 L 296 435.091 296 404 L 296 372.909 293.545 370.455 C 291.998 368.907, 289.948 368, 288 368 C 286.052 368, 284.002 368.907, 282.455 370.455 M 16 484 L 16 496 100 496 L 184 496 184 484 L 184 472 100 472 L 16 472 16 484 M 328 484 L 328 496 412 496 L 496 496 496 484 L 496 472 412 472 L 328 472 328 484" stroke="none" fill="#8d9e74" fill-rule="evenodd"/></svg>