<svg class="svg-icon" style="width: 1em; height: 1em;vertical-align: middle;fill: currentColor;overflow: hidden;" viewBox="0 0 1024 1024" version="1.1" xmlns="http://www.w3.org/2000/svg"><path d="M512.104171 416.058596H224.38413c-26.45941 0-48.126958 21.459207-48.126958 48.126958V847.95117c0 26.45941 21.459207 48.126958 48.126958 48.126958h287.928383l-0.208342-480.019532z" fill="#616161" /><path d="M799.824212 416.058596H511.895829v480.019532h287.928383c26.45941 0 48.126958-21.667548 48.126958-48.126958V464.185554c0-26.667752-21.459207-48.126958-48.126958-48.126958zM364.181485 416.058596v-44.376806c0-81.461648 66.252696-147.506002 147.922686-147.506002 53.543845 0 100.212411 28.75117 126.046795 71.877925l1.041709-0.833367c8.542014 12.292167 22.500916 20.834181 38.543235 20.834181 26.45941 0 48.126958-21.667548 48.126959-48.126958 0-6.458596-1.458393-12.70885-3.750153-18.33408l-0.416683-0.833367c-2.083418-5.000203-5.208545-9.16704-8.750356-12.917192-43.75178-65.002645-116.879756-108.1294-200.841506-108.1294-134.797152 0-243.759919 109.171109-243.759919 243.759919v44.376805l95.837233 0.208342z" fill="#757575" /><path d="M550.439064 665.860427v60.419125c0 21.250865-17.29237 38.334893-38.334893 38.334894s-38.334893-17.29237-38.334893-38.334894v-60.419125c-16.875687-12.292167-27.084435-31.876297-27.084436-53.127161 0-36.251475 29.376195-65.62767 65.627671-65.627671s65.62767 29.376195 65.62767 65.627671c-0.416684 21.459207-10.625432 41.043337-27.501119 53.127161z" fill="#424242" /><path d="M512.104171 562.314547c27.917803 0 50.62706 22.709257 50.62706 50.62706 0 19.375788-11.042116 36.251475-27.084435 44.79349v68.752797c0 12.917192-10.625432 23.334283-23.334283 23.334283-12.917192 0-23.334283-10.625432-23.334283-23.334283v-68.752797c-16.042319-8.542014-27.084435-25.417701-27.084435-44.79349-0.416684-27.917803 22.292574-50.62706 50.210376-50.62706z" fill="#FFFFFF" /></svg>