<svg xmlns="http://www.w3.org/2000/svg" width="96" height="96" viewBox="0 0 96 96" version="1.1"><path d="" stroke="none" fill="#080404" fill-rule="evenodd"/><path d="M 17.500 10.389 C 6.168 14.568, 0.397 17.190, 0.191 18.253 C 0.022 19.130, 1.972 22.990, 4.526 26.830 L 9.168 33.812 4.584 40.645 C 2.063 44.404, -0 48.180, -0 49.037 C -0 50.151, 5.062 52.408, 17.750 56.951 C 27.512 60.447, 36.035 63.500, 36.689 63.737 C 37.343 63.973, 40.268 60.565, 43.189 56.163 L 48.500 48.158 67.747 40.964 L 86.995 33.771 90.571 27.883 C 92.538 24.645, 94.822 21.320, 95.647 20.496 C 96.471 19.671, 97.001 18.386, 96.823 17.639 C 96.584 16.637, 91.662 18.098, 78 23.228 C 67.825 27.049, 58.974 30.610, 58.331 31.142 C 57.689 31.674, 55.319 35.213, 53.066 39.005 C 50.813 42.798, 48.496 46.193, 47.917 46.551 C 47.338 46.909, 38.734 44.151, 28.796 40.423 C 15.760 35.533, 11.252 33.445, 12.613 32.925 C 13.651 32.529, 21.925 29.406, 31 25.986 L 47.500 19.768 55.623 22.549 L 63.745 25.329 76.873 20.433 C 84.093 17.740, 89.996 15.304, 89.991 15.019 C 89.979 14.286, 60.855 3.974, 58.839 3.988 C 57.868 3.995, 55.386 6.905, 52.859 11 C 50.484 14.850, 48.297 18, 48 18 C 47.703 18, 45.516 14.850, 43.141 11 C 39.894 5.739, 38.284 4.015, 36.661 4.059 C 35.472 4.092, 26.850 6.940, 17.500 10.389 M 0.158 19 C 0.158 20.375, 0.385 20.938, 0.662 20.250 C 0.940 19.563, 0.940 18.438, 0.662 17.750 C 0.385 17.063, 0.158 17.625, 0.158 19 M 67 44.422 L 50.500 50.707 50.230 71.353 C 50.081 82.709, 50.329 92, 50.781 92 C 51.233 92, 59.454 89.131, 69.051 85.624 L 86.500 79.249 86.770 58.624 C 87.022 39.435, 86.917 38.005, 85.270 38.068 C 84.297 38.106, 76.075 40.965, 67 44.422 M 9.216 68.626 L 9.500 79.251 26.949 85.626 C 36.546 89.132, 44.758 92, 45.199 92 C 45.639 92, 46 84.282, 46 74.850 L 46 57.700 42.960 61.897 C 41.288 64.205, 39.263 66.346, 38.460 66.654 C 37.657 66.962, 31.339 65.141, 24.419 62.607 C 17.499 60.073, 11.184 58, 10.385 58 C 9.188 58, 8.982 59.871, 9.216 68.626" stroke="none" fill="#040404" fill-rule="evenodd"/></svg>