<svg xmlns="http://www.w3.org/2000/svg" width="120" height="120" viewBox="0 0 120 120" version="1.1"><path d="" stroke="none" fill="#288ce4" fill-rule="evenodd"/><path d="M 24.500 13.110 C 21.169 15.025, 14.930 21.319, 13.320 24.388 C 10.476 29.813, 12.011 32.466, 26.257 46.750 L 39.472 60 26.257 73.250 C 12.376 87.168, 10.511 90.249, 13.018 95.128 C 14.787 98.571, 21.039 104.923, 24.388 106.680 C 29.813 109.524, 32.466 107.989, 46.750 93.743 L 60 80.528 73.250 93.743 C 87.534 107.989, 90.187 109.524, 95.612 106.680 C 98.961 104.923, 105.213 98.571, 106.982 95.128 C 109.489 90.249, 107.624 87.168, 93.743 73.250 L 80.528 60 93.743 46.750 C 107.624 32.832, 109.489 29.751, 106.982 24.872 C 105.213 21.429, 98.961 15.077, 95.612 13.320 C 90.187 10.476, 87.534 12.011, 73.250 26.257 L 60 39.472 46.707 26.207 C 35.855 15.377, 32.780 12.851, 29.957 12.451 C 28.056 12.181, 25.600 12.478, 24.500 13.110 M 22.368 22.368 C 19.966 24.771, 18 27.590, 18 28.632 C 18 29.736, 23.841 36.357, 32 44.500 C 39.700 52.185, 46 59.160, 46 60 C 46 60.840, 39.700 67.815, 32 75.500 C 23.841 83.643, 18 90.264, 18 91.368 C 18 93.828, 26.172 102, 28.632 102 C 29.736 102, 36.357 96.159, 44.500 88 C 52.185 80.300, 59.160 74, 60 74 C 60.840 74, 67.815 80.300, 75.500 88 C 83.643 96.159, 90.264 102, 91.368 102 C 93.828 102, 102 93.828, 102 91.368 C 102 90.264, 96.159 83.643, 88 75.500 C 80.300 67.815, 74 60.840, 74 60 C 74 59.160, 80.300 52.185, 88 44.500 C 96.159 36.357, 102 29.736, 102 28.632 C 102 26.172, 93.828 18, 91.368 18 C 90.264 18, 83.643 23.841, 75.500 32 C 67.815 39.700, 60.840 46, 60 46 C 59.160 46, 52.185 39.700, 44.500 32 C 36.357 23.841, 29.736 18, 28.632 18 C 27.590 18, 24.771 19.966, 22.368 22.368" stroke="none" fill="#248ce4" fill-rule="evenodd"/></svg>